<svg xmlns="http://www.w3.org/2000/svg" width="965" height="211" viewBox="0 0 965 211" font-family="ui-monospace, 'SF Mono', Menlo, Consolas, 'Liberation Mono', 'DejaVu Sans Mono', monospace" role="img">
<defs><pattern id="scan" width="4" height="4" patternUnits="userSpaceOnUse"><rect width="4" height="2" fill="#ffffff" opacity="0.028"/></pattern></defs>

<rect x="0.5" y="0.5" width="964" height="210" rx="8" fill="#0E0E14" stroke="#22222E"/>
<text x="20" y="30" font-size="13" fill="#F5E900" font-weight="700" text-anchor="start" letter-spacing="2.5" textLength="293.2" lengthAdjust="spacing" >// ACTIVITY · LAST 12 MONTHS</text>
<line x1="325.2" y1="26" x2="814.1" y2="26" stroke="#22222E"/>
<text x="945" y="30" font-size="9" fill="#00F0FF" font-weight="500" text-anchor="end" letter-spacing="1.5" textLength="118.9" lengthAdjust="spacing" >105 CONTRIBUTIONS</text>
<text x="65" y="46" font-size="9" fill="#8A8A9C" font-weight="500" text-anchor="start" letter-spacing="1.5" textLength="19.7" lengthAdjust="spacing" >SEP</text><text x="133" y="46" font-size="9" fill="#8A8A9C" font-weight="500" text-anchor="start" letter-spacing="1.5" textLength="19.7" lengthAdjust="spacing" >OCT</text><text x="201" y="46" font-size="9" fill="#8A8A9C" font-weight="500" text-anchor="start" letter-spacing="1.5" textLength="19.7" lengthAdjust="spacing" >NOV</text><text x="286" y="46" font-size="9" fill="#8A8A9C" font-weight="500" text-anchor="start" letter-spacing="1.5" textLength="19.7" lengthAdjust="spacing" >DEC</text><text x="354" y="46" font-size="9" fill="#8A8A9C" font-weight="500" text-anchor="start" letter-spacing="1.5" textLength="19.7" lengthAdjust="spacing" >JAN</text><text x="422" y="46" font-size="9" fill="#8A8A9C" font-weight="500" text-anchor="start" letter-spacing="1.5" textLength="19.7" lengthAdjust="spacing" >FEB</text><text x="490" y="46" font-size="9" fill="#8A8A9C" font-weight="500" text-anchor="start" letter-spacing="1.5" textLength="19.7" lengthAdjust="spacing" >MAR</text><text x="575" y="46" font-size="9" fill="#8A8A9C" font-weight="500" text-anchor="start" letter-spacing="1.5" textLength="19.7" lengthAdjust="spacing" >APR</text><text x="643" y="46" font-size="9" fill="#8A8A9C" font-weight="500" text-anchor="start" letter-spacing="1.5" textLength="19.7" lengthAdjust="spacing" >MAY</text><text x="728" y="46" font-size="9" fill="#8A8A9C" font-weight="500" text-anchor="start" letter-spacing="1.5" textLength="19.7" lengthAdjust="spacing" >JUN</text><text x="796" y="46" font-size="9" fill="#8A8A9C" font-weight="500" text-anchor="start" letter-spacing="1.5" textLength="19.7" lengthAdjust="spacing" >JUL</text><text x="864" y="46" font-size="9" fill="#8A8A9C" font-weight="500" text-anchor="start" letter-spacing="1.5" textLength="19.7" lengthAdjust="spacing" >AUG</text><text x="38" y="85" font-size="9" fill="#4A4A5C" font-weight="500" text-anchor="end" letter-spacing="1.5" textLength="19.7" lengthAdjust="spacing" >MON</text><text x="38" y="119" font-size="9" fill="#4A4A5C" font-weight="500" text-anchor="end" letter-spacing="1.5" textLength="19.7" lengthAdjust="spacing" >WED</text><text x="38" y="153" font-size="9" fill="#4A4A5C" font-weight="500" text-anchor="end" letter-spacing="1.5" textLength="19.7" lengthAdjust="spacing" >FRI</text><g opacity="1"><rect x="48" y="58" width="13" height="13" rx="2.5" fill="#1A1A24"><title>2025-08-31: 0</title></rect><rect x="48" y="75" width="13" height="13" rx="2.5" fill="#1A1A24"><title>2025-09-01: 0</title></rect><rect x="48" y="92" width="13" height="13" rx="2.5" fill="#1A1A24"><title>2025-09-02: 0</title></rect><rect x="48" y="109" width="13" height="13" rx="2.5" fill="#1A1A24"><title>2025-09-03: 0</title></rect><rect x="48" y="126" width="13" height="13" rx="2.5" fill="#1A1A24"><title>2025-09-04: 0</title></rect><rect x="48" y="143" width="13" height="13" rx="2.5" fill="#1A1A24"><title>2025-09-05: 0</title></rect><rect x="48" y="160" width="13" height="13" rx="2.5" fill="#1A1A24"><title>2025-09-06: 0</title></rect></g><g opacity="1"><rect x="65" y="58" width="13" height="13" rx="2.5" fill="#1A1A24"><title>2025-09-07: 0</title></rect><rect x="65" y="75" width="13" height="13" rx="2.5" fill="#1A1A24"><title>2025-09-08: 0</title></rect><rect x="65" y="92" width="13" height="13" rx="2.5" fill="#1A1A24"><title>2025-09-09: 0</title></rect><rect x="65" y="109" width="13" height="13" rx="2.5" fill="#1A1A24"><title>2025-09-10: 0</title></rect><rect x="65" y="126" width="13" height="13" rx="2.5" fill="#1A1A24"><title>2025-09-11: 0</title></rect><rect x="65" y="143" width="13" height="13" rx="2.5" fill="#1A1A24"><title>2025-09-12: 0</title></rect><rect x="65" y="160" width="13" height="13" rx="2.5" fill="#1A1A24"><title>2025-09-13: 0</title></rect></g><g opacity="1"><rect x="82" y="58" width="13" height="13" rx="2.5" fill="#1A1A24"><title>2025-09-14: 0</title></rect><rect x="82" y="75" width="13" height="13" rx="2.5" fill="#1A1A24"><title>2025-09-15: 0</title></rect><rect x="82" y="92" width="13" height="13" rx="2.5" fill="#1A1A24"><title>2025-09-16: 0</title></rect><rect x="82" y="109" width="13" height="13" rx="2.5" fill="#1A1A24"><title>2025-09-17: 0</title></rect><rect x="82" y="126" width="13" height="13" rx="2.5" fill="#1A1A24"><title>2025-09-18: 0</title></rect><rect x="82" y="143" width="13" height="13" rx="2.5" fill="#1A1A24"><title>2025-09-19: 0</title></rect><rect x="82" y="160" width="13" height="13" rx="2.5" fill="#1A1A24"><title>2025-09-20: 0</title></rect></g><g opacity="1"><rect x="99" y="58" width="13" height="13" rx="2.5" fill="#1A1A24"><title>2025-09-21: 0</title></rect><rect x="99" y="75" width="13" height="13" rx="2.5" fill="#1A1A24"><title>2025-09-22: 0</title></rect><rect x="99" y="92" width="13" height="13" rx="2.5" fill="#1A1A24"><title>2025-09-23: 0</title></rect><rect x="99" y="109" width="13" height="13" rx="2.5" fill="#1A1A24"><title>2025-09-24: 0</title></rect><rect x="99" y="126" width="13" height="13" rx="2.5" fill="#1A1A24"><title>2025-09-25: 0</title></rect><rect x="99" y="143" width="13" height="13" rx="2.5" fill="#1A1A24"><title>2025-09-26: 0</title></rect><rect x="99" y="160" width="13" height="13" rx="2.5" fill="#1A1A24"><title>2025-09-27: 0</title></rect></g><g opacity="1"><rect x="116" y="58" width="13" height="13" rx="2.5" fill="#1A1A24"><title>2025-09-28: 0</title></rect><rect x="116" y="75" width="13" height="13" rx="2.5" fill="#1A1A24"><title>2025-09-29: 0</title></rect><rect x="116" y="92" width="13" height="13" rx="2.5" fill="#1A1A24"><title>2025-09-30: 0</title></rect><rect x="116" y="109" width="13" height="13" rx="2.5" fill="#1A1A24"><title>2025-10-01: 0</title></rect><rect x="116" y="126" width="13" height="13" rx="2.5" fill="#1A1A24"><title>2025-10-02: 0</title></rect><rect x="116" y="143" width="13" height="13" rx="2.5" fill="#1A1A24"><title>2025-10-03: 0</title></rect><rect x="116" y="160" width="13" height="13" rx="2.5" fill="#1A1A24"><title>2025-10-04: 0</title></rect></g><g opacity="1"><rect x="133" y="58" width="13" height="13" rx="2.5" fill="#1A1A24"><title>2025-10-05: 0</title></rect><rect x="133" y="75" width="13" height="13" rx="2.5" fill="#1A1A24"><title>2025-10-06: 0</title></rect><rect x="133" y="92" width="13" height="13" rx="2.5" fill="#1A1A24"><title>2025-10-07: 0</title></rect><rect x="133" y="109" width="13" height="13" rx="2.5" fill="#1A1A24"><title>2025-10-08: 0</title></rect><rect x="133" y="126" width="13" height="13" rx="2.5" fill="#1A1A24"><title>2025-10-09: 0</title></rect><rect x="133" y="143" width="13" height="13" rx="2.5" fill="#1A1A24"><title>2025-10-10: 0</title></rect><rect x="133" y="160" width="13" height="13" rx="2.5" fill="#1A1A24"><title>2025-10-11: 0</title></rect></g><g opacity="1"><rect x="150" y="58" width="13" height="13" rx="2.5" fill="#1A1A24"><title>2025-10-12: 0</title></rect><rect x="150" y="75" width="13" height="13" rx="2.5" fill="#1A1A24"><title>2025-10-13: 0</title></rect><rect x="150" y="92" width="13" height="13" rx="2.5" fill="#1A1A24"><title>2025-10-14: 0</title></rect><rect x="150" y="109" width="13" height="13" rx="2.5" fill="#1A1A24"><title>2025-10-15: 0</title></rect><rect x="150" y="126" width="13" height="13" rx="2.5" fill="#1A1A24"><title>2025-10-16: 0</title></rect><rect x="150" y="143" width="13" height="13" rx="2.5" fill="#1A1A24"><title>2025-10-17: 0</title></rect><rect x="150" y="160" width="13" height="13" rx="2.5" fill="#1A1A24"><title>2025-10-18: 0</title></rect></g><g opacity="1"><rect x="167" y="58" width="13" height="13" rx="2.5" fill="#1A1A24"><title>2025-10-19: 0</title></rect><rect x="167" y="75" width="13" height="13" rx="2.5" fill="#1A1A24"><title>2025-10-20: 0</title></rect><rect x="167" y="92" width="13" height="13" rx="2.5" fill="#1A1A24"><title>2025-10-21: 0</title></rect><rect x="167" y="109" width="13" height="13" rx="2.5" fill="#1A1A24"><title>2025-10-22: 0</title></rect><rect x="167" y="126" width="13" height="13" rx="2.5" fill="#1A1A24"><title>2025-10-23: 0</title></rect><rect x="167" y="143" width="13" height="13" rx="2.5" fill="#1A1A24"><title>2025-10-24: 0</title></rect><rect x="167" y="160" width="13" height="13" rx="2.5" fill="#1A1A24"><title>2025-10-25: 0</title></rect></g><g opacity="1"><rect x="184" y="58" width="13" height="13" rx="2.5" fill="#1A1A24"><title>2025-10-26: 0</title></rect><rect x="184" y="75" width="13" height="13" rx="2.5" fill="#1A1A24"><title>2025-10-27: 0</title></rect><rect x="184" y="92" width="13" height="13" rx="2.5" fill="#1A1A24"><title>2025-10-28: 0</title></rect><rect x="184" y="109" width="13" height="13" rx="2.5" fill="#1A1A24"><title>2025-10-29: 0</title></rect><rect x="184" y="126" width="13" height="13" rx="2.5" fill="#1A1A24"><title>2025-10-30: 0</title></rect><rect x="184" y="143" width="13" height="13" rx="2.5" fill="#1A1A24"><title>2025-10-31: 0</title></rect><rect x="184" y="160" width="13" height="13" rx="2.5" fill="#1A1A24"><title>2025-11-01: 0</title></rect></g><g opacity="1"><rect x="201" y="58" width="13" height="13" rx="2.5" fill="#1A1A24"><title>2025-11-02: 0</title></rect><rect x="201" y="75" width="13" height="13" rx="2.5" fill="#1A1A24"><title>2025-11-03: 0</title></rect><rect x="201" y="92" width="13" height="13" rx="2.5" fill="#1A1A24"><title>2025-11-04: 0</title></rect><rect x="201" y="109" width="13" height="13" rx="2.5" fill="#1A1A24"><title>2025-11-05: 0</title></rect><rect x="201" y="126" width="13" height="13" rx="2.5" fill="#1A1A24"><title>2025-11-06: 0</title></rect><rect x="201" y="143" width="13" height="13" rx="2.5" fill="#1A1A24"><title>2025-11-07: 0</title></rect><rect x="201" y="160" width="13" height="13" rx="2.5" fill="#1A1A24"><title>2025-11-08: 0</title></rect></g><g opacity="1"><rect x="218" y="58" width="13" height="13" rx="2.5" fill="#1A1A24"><title>2025-11-09: 0</title></rect><rect x="218" y="75" width="13" height="13" rx="2.5" fill="#1A1A24"><title>2025-11-10: 0</title></rect><rect x="218" y="92" width="13" height="13" rx="2.5" fill="#1A1A24"><title>2025-11-11: 0</title></rect><rect x="218" y="109" width="13" height="13" rx="2.5" fill="#1A1A24"><title>2025-11-12: 0</title></rect><rect x="218" y="126" width="13" height="13" rx="2.5" fill="#1A1A24"><title>2025-11-13: 0</title></rect><rect x="218" y="143" width="13" height="13" rx="2.5" fill="#1A1A24"><title>2025-11-14: 0</title></rect><rect x="218" y="160" width="13" height="13" rx="2.5" fill="#1A1A24"><title>2025-11-15: 0</title></rect></g><g opacity="1"><rect x="235" y="58" width="13" height="13" rx="2.5" fill="#1A1A24"><title>2025-11-16: 0</title></rect><rect x="235" y="75" width="13" height="13" rx="2.5" fill="#1A1A24"><title>2025-11-17: 0</title></rect><rect x="235" y="92" width="13" height="13" rx="2.5" fill="#1A1A24"><title>2025-11-18: 0</title></rect><rect x="235" y="109" width="13" height="13" rx="2.5" fill="#1A1A24"><title>2025-11-19: 0</title></rect><rect x="235" y="126" width="13" height="13" rx="2.5" fill="#1A1A24"><title>2025-11-20: 0</title></rect><rect x="235" y="143" width="13" height="13" rx="2.5" fill="#1A1A24"><title>2025-11-21: 0</title></rect><rect x="235" y="160" width="13" height="13" rx="2.5" fill="#1A1A24"><title>2025-11-22: 0</title></rect></g><g opacity="1"><rect x="252" y="58" width="13" height="13" rx="2.5" fill="#1A1A24"><title>2025-11-23: 0</title></rect><rect x="252" y="75" width="13" height="13" rx="2.5" fill="#1A1A24"><title>2025-11-24: 0</title></rect><rect x="252" y="92" width="13" height="13" rx="2.5" fill="#1A1A24"><title>2025-11-25: 0</title></rect><rect x="252" y="109" width="13" height="13" rx="2.5" fill="#1A1A24"><title>2025-11-26: 0</title></rect><rect x="252" y="126" width="13" height="13" rx="2.5" fill="#1A1A24"><title>2025-11-27: 0</title></rect><rect x="252" y="143" width="13" height="13" rx="2.5" fill="#1A1A24"><title>2025-11-28: 0</title></rect><rect x="252" y="160" width="13" height="13" rx="2.5" fill="#1A1A24"><title>2025-11-29: 0</title></rect></g><g opacity="1"><rect x="269" y="58" width="13" height="13" rx="2.5" fill="#1A1A24"><title>2025-11-30: 0</title></rect><rect x="269" y="75" width="13" height="13" rx="2.5" fill="#1A1A24"><title>2025-12-01: 0</title></rect><rect x="269" y="92" width="13" height="13" rx="2.5" fill="#1A1A24"><title>2025-12-02: 0</title></rect><rect x="269" y="109" width="13" height="13" rx="2.5" fill="#1A1A24"><title>2025-12-03: 0</title></rect><rect x="269" y="126" width="13" height="13" rx="2.5" fill="#1A1A24"><title>2025-12-04: 0</title></rect><rect x="269" y="143" width="13" height="13" rx="2.5" fill="#1A1A24"><title>2025-12-05: 0</title></rect><rect x="269" y="160" width="13" height="13" rx="2.5" fill="#1A1A24"><title>2025-12-06: 0</title></rect></g><g opacity="1"><rect x="286" y="58" width="13" height="13" rx="2.5" fill="#1A1A24"><title>2025-12-07: 0</title></rect><rect x="286" y="75" width="13" height="13" rx="2.5" fill="#1A1A24"><title>2025-12-08: 0</title></rect><rect x="286" y="92" width="13" height="13" rx="2.5" fill="#1A1A24"><title>2025-12-09: 0</title></rect><rect x="286" y="109" width="13" height="13" rx="2.5" fill="#1A1A24"><title>2025-12-10: 0</title></rect><rect x="286" y="126" width="13" height="13" rx="2.5" fill="#1A1A24"><title>2025-12-11: 0</title></rect><rect x="286" y="143" width="13" height="13" rx="2.5" fill="#1A1A24"><title>2025-12-12: 0</title></rect><rect x="286" y="160" width="13" height="13" rx="2.5" fill="#1A1A24"><title>2025-12-13: 0</title></rect></g><g opacity="1"><rect x="303" y="58" width="13" height="13" rx="2.5" fill="#1A1A24"><title>2025-12-14: 0</title></rect><rect x="303" y="75" width="13" height="13" rx="2.5" fill="#1A1A24"><title>2025-12-15: 0</title></rect><rect x="303" y="92" width="13" height="13" rx="2.5" fill="#1A1A24"><title>2025-12-16: 0</title></rect><rect x="303" y="109" width="13" height="13" rx="2.5" fill="#1A1A24"><title>2025-12-17: 0</title></rect><rect x="303" y="126" width="13" height="13" rx="2.5" fill="#1A1A24"><title>2025-12-18: 0</title></rect><rect x="303" y="143" width="13" height="13" rx="2.5" fill="#1A1A24"><title>2025-12-19: 0</title></rect><rect x="303" y="160" width="13" height="13" rx="2.5" fill="#1A1A24"><title>2025-12-20: 0</title></rect></g><g opacity="1"><rect x="320" y="58" width="13" height="13" rx="2.5" fill="#1A1A24"><title>2025-12-21: 0</title></rect><rect x="320" y="75" width="13" height="13" rx="2.5" fill="#1A1A24"><title>2025-12-22: 0</title></rect><rect x="320" y="92" width="13" height="13" rx="2.5" fill="#1A1A24"><title>2025-12-23: 0</title></rect><rect x="320" y="109" width="13" height="13" rx="2.5" fill="#1A1A24"><title>2025-12-24: 0</title></rect><rect x="320" y="126" width="13" height="13" rx="2.5" fill="#1A1A24"><title>2025-12-25: 0</title></rect><rect x="320" y="143" width="13" height="13" rx="2.5" fill="#1A1A24"><title>2025-12-26: 0</title></rect><rect x="320" y="160" width="13" height="13" rx="2.5" fill="#1A1A24"><title>2025-12-27: 0</title></rect></g><g opacity="1"><rect x="337" y="58" width="13" height="13" rx="2.5" fill="#1A1A24"><title>2025-12-28: 0</title></rect><rect x="337" y="75" width="13" height="13" rx="2.5" fill="#1A1A24"><title>2025-12-29: 0</title></rect><rect x="337" y="92" width="13" height="13" rx="2.5" fill="#1A1A24"><title>2025-12-30: 0</title></rect><rect x="337" y="109" width="13" height="13" rx="2.5" fill="#1A1A24"><title>2025-12-31: 0</title></rect><rect x="337" y="126" width="13" height="13" rx="2.5" fill="#1A1A24"><title>2026-01-01: 0</title></rect><rect x="337" y="143" width="13" height="13" rx="2.5" fill="#1A1A24"><title>2026-01-02: 0</title></rect><rect x="337" y="160" width="13" height="13" rx="2.5" fill="#1A1A24"><title>2026-01-03: 0</title></rect></g><g opacity="1"><rect x="354" y="58" width="13" height="13" rx="2.5" fill="#1A1A24"><title>2026-01-04: 0</title></rect><rect x="354" y="75" width="13" height="13" rx="2.5" fill="#1A1A24"><title>2026-01-05: 0</title></rect><rect x="354" y="92" width="13" height="13" rx="2.5" fill="#1A1A24"><title>2026-01-06: 0</title></rect><rect x="354" y="109" width="13" height="13" rx="2.5" fill="#1A1A24"><title>2026-01-07: 0</title></rect><rect x="354" y="126" width="13" height="13" rx="2.5" fill="#1A1A24"><title>2026-01-08: 0</title></rect><rect x="354" y="143" width="13" height="13" rx="2.5" fill="#1A1A24"><title>2026-01-09: 0</title></rect><rect x="354" y="160" width="13" height="13" rx="2.5" fill="#1A1A24"><title>2026-01-10: 0</title></rect></g><g opacity="1"><rect x="371" y="58" width="13" height="13" rx="2.5" fill="#1A1A24"><title>2026-01-11: 0</title></rect><rect x="371" y="75" width="13" height="13" rx="2.5" fill="#1A1A24"><title>2026-01-12: 0</title></rect><rect x="371" y="92" width="13" height="13" rx="2.5" fill="#1A1A24"><title>2026-01-13: 0</title></rect><rect x="371" y="109" width="13" height="13" rx="2.5" fill="#1A1A24"><title>2026-01-14: 0</title></rect><rect x="371" y="126" width="13" height="13" rx="2.5" fill="#1A1A24"><title>2026-01-15: 0</title></rect><rect x="371" y="143" width="13" height="13" rx="2.5" fill="#1A1A24"><title>2026-01-16: 0</title></rect><rect x="371" y="160" width="13" height="13" rx="2.5" fill="#1A1A24"><title>2026-01-17: 0</title></rect></g><g opacity="1"><rect x="388" y="58" width="13" height="13" rx="2.5" fill="#1A1A24"><title>2026-01-18: 0</title></rect><rect x="388" y="75" width="13" height="13" rx="2.5" fill="#1A1A24"><title>2026-01-19: 0</title></rect><rect x="388" y="92" width="13" height="13" rx="2.5" fill="#1A1A24"><title>2026-01-20: 0</title></rect><rect x="388" y="109" width="13" height="13" rx="2.5" fill="#1A1A24"><title>2026-01-21: 0</title></rect><rect x="388" y="126" width="13" height="13" rx="2.5" fill="#1A1A24"><title>2026-01-22: 0</title></rect><rect x="388" y="143" width="13" height="13" rx="2.5" fill="#1A1A24"><title>2026-01-23: 0</title></rect><rect x="388" y="160" width="13" height="13" rx="2.5" fill="#1A1A24"><title>2026-01-24: 0</title></rect></g><g opacity="1"><rect x="405" y="58" width="13" height="13" rx="2.5" fill="#1A1A24"><title>2026-01-25: 0</title></rect><rect x="405" y="75" width="13" height="13" rx="2.5" fill="#1A1A24"><title>2026-01-26: 0</title></rect><rect x="405" y="92" width="13" height="13" rx="2.5" fill="#1A1A24"><title>2026-01-27: 0</title></rect><rect x="405" y="109" width="13" height="13" rx="2.5" fill="#1A1A24"><title>2026-01-28: 0</title></rect><rect x="405" y="126" width="13" height="13" rx="2.5" fill="#1A1A24"><title>2026-01-29: 0</title></rect><rect x="405" y="143" width="13" height="13" rx="2.5" fill="#1A1A24"><title>2026-01-30: 0</title></rect><rect x="405" y="160" width="13" height="13" rx="2.5" fill="#1A1A24"><title>2026-01-31: 0</title></rect></g><g opacity="1"><rect x="422" y="58" width="13" height="13" rx="2.5" fill="#1A1A24"><title>2026-02-01: 0</title></rect><rect x="422" y="75" width="13" height="13" rx="2.5" fill="#1A1A24"><title>2026-02-02: 0</title></rect><rect x="422" y="92" width="13" height="13" rx="2.5" fill="#1A1A24"><title>2026-02-03: 0</title></rect><rect x="422" y="109" width="13" height="13" rx="2.5" fill="#1A1A24"><title>2026-02-04: 0</title></rect><rect x="422" y="126" width="13" height="13" rx="2.5" fill="#1A1A24"><title>2026-02-05: 0</title></rect><rect x="422" y="143" width="13" height="13" rx="2.5" fill="#1A1A24"><title>2026-02-06: 0</title></rect><rect x="422" y="160" width="13" height="13" rx="2.5" fill="#1A1A24"><title>2026-02-07: 0</title></rect></g><g opacity="1"><rect x="439" y="58" width="13" height="13" rx="2.5" fill="#1A1A24"><title>2026-02-08: 0</title></rect><rect x="439" y="75" width="13" height="13" rx="2.5" fill="#1A1A24"><title>2026-02-09: 0</title></rect><rect x="439" y="92" width="13" height="13" rx="2.5" fill="#1A1A24"><title>2026-02-10: 0</title></rect><rect x="439" y="109" width="13" height="13" rx="2.5" fill="#1A1A24"><title>2026-02-11: 0</title></rect><rect x="439" y="126" width="13" height="13" rx="2.5" fill="#1A1A24"><title>2026-02-12: 0</title></rect><rect x="439" y="143" width="13" height="13" rx="2.5" fill="#1A1A24"><title>2026-02-13: 0</title></rect><rect x="439" y="160" width="13" height="13" rx="2.5" fill="#1A1A24"><title>2026-02-14: 0</title></rect></g><g opacity="1"><rect x="456" y="58" width="13" height="13" rx="2.5" fill="#1A1A24"><title>2026-02-15: 0</title></rect><rect x="456" y="75" width="13" height="13" rx="2.5" fill="#1A1A24"><title>2026-02-16: 0</title></rect><rect x="456" y="92" width="13" height="13" rx="2.5" fill="#1A1A24"><title>2026-02-17: 0</title></rect><rect x="456" y="109" width="13" height="13" rx="2.5" fill="#1A1A24"><title>2026-02-18: 0</title></rect><rect x="456" y="126" width="13" height="13" rx="2.5" fill="#1A1A24"><title>2026-02-19: 0</title></rect><rect x="456" y="143" width="13" height="13" rx="2.5" fill="#524F00"><title>2026-02-20: 1</title></rect><rect x="456" y="160" width="13" height="13" rx="2.5" fill="#1A1A24"><title>2026-02-21: 0</title></rect></g><g opacity="1"><rect x="473" y="58" width="13" height="13" rx="2.5" fill="#1A1A24"><title>2026-02-22: 0</title></rect><rect x="473" y="75" width="13" height="13" rx="2.5" fill="#1A1A24"><title>2026-02-23: 0</title></rect><rect x="473" y="92" width="13" height="13" rx="2.5" fill="#1A1A24"><title>2026-02-24: 0</title></rect><rect x="473" y="109" width="13" height="13" rx="2.5" fill="#1A1A24"><title>2026-02-25: 0</title></rect><rect x="473" y="126" width="13" height="13" rx="2.5" fill="#1A1A24"><title>2026-02-26: 0</title></rect><rect x="473" y="143" width="13" height="13" rx="2.5" fill="#1A1A24"><title>2026-02-27: 0</title></rect><rect x="473" y="160" width="13" height="13" rx="2.5" fill="#1A1A24"><title>2026-02-28: 0</title></rect></g><g opacity="1"><rect x="490" y="58" width="13" height="13" rx="2.5" fill="#1A1A24"><title>2026-03-01: 0</title></rect><rect x="490" y="75" width="13" height="13" rx="2.5" fill="#1A1A24"><title>2026-03-02: 0</title></rect><rect x="490" y="92" width="13" height="13" rx="2.5" fill="#1A1A24"><title>2026-03-03: 0</title></rect><rect x="490" y="109" width="13" height="13" rx="2.5" fill="#1A1A24"><title>2026-03-04: 0</title></rect><rect x="490" y="126" width="13" height="13" rx="2.5" fill="#1A1A24"><title>2026-03-05: 0</title></rect><rect x="490" y="143" width="13" height="13" rx="2.5" fill="#1A1A24"><title>2026-03-06: 0</title></rect><rect x="490" y="160" width="13" height="13" rx="2.5" fill="#1A1A24"><title>2026-03-07: 0</title></rect></g><g opacity="1"><rect x="507" y="58" width="13" height="13" rx="2.5" fill="#1A1A24"><title>2026-03-08: 0</title></rect><rect x="507" y="75" width="13" height="13" rx="2.5" fill="#1A1A24"><title>2026-03-09: 0</title></rect><rect x="507" y="92" width="13" height="13" rx="2.5" fill="#1A1A24"><title>2026-03-10: 0</title></rect><rect x="507" y="109" width="13" height="13" rx="2.5" fill="#1A1A24"><title>2026-03-11: 0</title></rect><rect x="507" y="126" width="13" height="13" rx="2.5" fill="#1A1A24"><title>2026-03-12: 0</title></rect><rect x="507" y="143" width="13" height="13" rx="2.5" fill="#1A1A24"><title>2026-03-13: 0</title></rect><rect x="507" y="160" width="13" height="13" rx="2.5" fill="#1A1A24"><title>2026-03-14: 0</title></rect></g><g opacity="1"><rect x="524" y="58" width="13" height="13" rx="2.5" fill="#1A1A24"><title>2026-03-15: 0</title></rect><rect x="524" y="75" width="13" height="13" rx="2.5" fill="#1A1A24"><title>2026-03-16: 0</title></rect><rect x="524" y="92" width="13" height="13" rx="2.5" fill="#1A1A24"><title>2026-03-17: 0</title></rect><rect x="524" y="109" width="13" height="13" rx="2.5" fill="#1A1A24"><title>2026-03-18: 0</title></rect><rect x="524" y="126" width="13" height="13" rx="2.5" fill="#1A1A24"><title>2026-03-19: 0</title></rect><rect x="524" y="143" width="13" height="13" rx="2.5" fill="#1A1A24"><title>2026-03-20: 0</title></rect><rect x="524" y="160" width="13" height="13" rx="2.5" fill="#1A1A24"><title>2026-03-21: 0</title></rect></g><g opacity="1"><rect x="541" y="58" width="13" height="13" rx="2.5" fill="#1A1A24"><title>2026-03-22: 0</title></rect><rect x="541" y="75" width="13" height="13" rx="2.5" fill="#1A1A24"><title>2026-03-23: 0</title></rect><rect x="541" y="92" width="13" height="13" rx="2.5" fill="#1A1A24"><title>2026-03-24: 0</title></rect><rect x="541" y="109" width="13" height="13" rx="2.5" fill="#1A1A24"><title>2026-03-25: 0</title></rect><rect x="541" y="126" width="13" height="13" rx="2.5" fill="#1A1A24"><title>2026-03-26: 0</title></rect><rect x="541" y="143" width="13" height="13" rx="2.5" fill="#1A1A24"><title>2026-03-27: 0</title></rect><rect x="541" y="160" width="13" height="13" rx="2.5" fill="#1A1A24"><title>2026-03-28: 0</title></rect></g><g opacity="1"><rect x="558" y="58" width="13" height="13" rx="2.5" fill="#1A1A24"><title>2026-03-29: 0</title></rect><rect x="558" y="75" width="13" height="13" rx="2.5" fill="#1A1A24"><title>2026-03-30: 0</title></rect><rect x="558" y="92" width="13" height="13" rx="2.5" fill="#1A1A24"><title>2026-03-31: 0</title></rect><rect x="558" y="109" width="13" height="13" rx="2.5" fill="#1A1A24"><title>2026-04-01: 0</title></rect><rect x="558" y="126" width="13" height="13" rx="2.5" fill="#1A1A24"><title>2026-04-02: 0</title></rect><rect x="558" y="143" width="13" height="13" rx="2.5" fill="#1A1A24"><title>2026-04-03: 0</title></rect><rect x="558" y="160" width="13" height="13" rx="2.5" fill="#1A1A24"><title>2026-04-04: 0</title></rect></g><g opacity="1"><rect x="575" y="58" width="13" height="13" rx="2.5" fill="#1A1A24"><title>2026-04-05: 0</title></rect><rect x="575" y="75" width="13" height="13" rx="2.5" fill="#1A1A24"><title>2026-04-06: 0</title></rect><rect x="575" y="92" width="13" height="13" rx="2.5" fill="#1A1A24"><title>2026-04-07: 0</title></rect><rect x="575" y="109" width="13" height="13" rx="2.5" fill="#1A1A24"><title>2026-04-08: 0</title></rect><rect x="575" y="126" width="13" height="13" rx="2.5" fill="#1A1A24"><title>2026-04-09: 0</title></rect><rect x="575" y="143" width="13" height="13" rx="2.5" fill="#1A1A24"><title>2026-04-10: 0</title></rect><rect x="575" y="160" width="13" height="13" rx="2.5" fill="#1A1A24"><title>2026-04-11: 0</title></rect></g><g opacity="1"><rect x="592" y="58" width="13" height="13" rx="2.5" fill="#1A1A24"><title>2026-04-12: 0</title></rect><rect x="592" y="75" width="13" height="13" rx="2.5" fill="#1A1A24"><title>2026-04-13: 0</title></rect><rect x="592" y="92" width="13" height="13" rx="2.5" fill="#1A1A24"><title>2026-04-14: 0</title></rect><rect x="592" y="109" width="13" height="13" rx="2.5" fill="#1A1A24"><title>2026-04-15: 0</title></rect><rect x="592" y="126" width="13" height="13" rx="2.5" fill="#524F00"><title>2026-04-16: 1</title></rect><rect x="592" y="143" width="13" height="13" rx="2.5" fill="#524F00"><title>2026-04-17: 1</title></rect><rect x="592" y="160" width="13" height="13" rx="2.5" fill="#1A1A24"><title>2026-04-18: 0</title></rect></g><g opacity="1"><rect x="609" y="58" width="13" height="13" rx="2.5" fill="#1A1A24"><title>2026-04-19: 0</title></rect><rect x="609" y="75" width="13" height="13" rx="2.5" fill="#1A1A24"><title>2026-04-20: 0</title></rect><rect x="609" y="92" width="13" height="13" rx="2.5" fill="#1A1A24"><title>2026-04-21: 0</title></rect><rect x="609" y="109" width="13" height="13" rx="2.5" fill="#1A1A24"><title>2026-04-22: 0</title></rect><rect x="609" y="126" width="13" height="13" rx="2.5" fill="#1A1A24"><title>2026-04-23: 0</title></rect><rect x="609" y="143" width="13" height="13" rx="2.5" fill="#1A1A24"><title>2026-04-24: 0</title></rect><rect x="609" y="160" width="13" height="13" rx="2.5" fill="#1A1A24"><title>2026-04-25: 0</title></rect></g><g opacity="1"><rect x="626" y="58" width="13" height="13" rx="2.5" fill="#1A1A24"><title>2026-04-26: 0</title></rect><rect x="626" y="75" width="13" height="13" rx="2.5" fill="#524F00"><title>2026-04-27: 1</title></rect><rect x="626" y="92" width="13" height="13" rx="2.5" fill="#1A1A24"><title>2026-04-28: 0</title></rect><rect x="626" y="109" width="13" height="13" rx="2.5" fill="#1A1A24"><title>2026-04-29: 0</title></rect><rect x="626" y="126" width="13" height="13" rx="2.5" fill="#1A1A24"><title>2026-04-30: 0</title></rect><rect x="626" y="143" width="13" height="13" rx="2.5" fill="#1A1A24"><title>2026-05-01: 0</title></rect><rect x="626" y="160" width="13" height="13" rx="2.5" fill="#1A1A24"><title>2026-05-02: 0</title></rect></g><g opacity="1"><rect x="643" y="58" width="13" height="13" rx="2.5" fill="#1A1A24"><title>2026-05-03: 0</title></rect><rect x="643" y="75" width="13" height="13" rx="2.5" fill="#1A1A24"><title>2026-05-04: 0</title></rect><rect x="643" y="92" width="13" height="13" rx="2.5" fill="#1A1A24"><title>2026-05-05: 0</title></rect><rect x="643" y="109" width="13" height="13" rx="2.5" fill="#1A1A24"><title>2026-05-06: 0</title></rect><rect x="643" y="126" width="13" height="13" rx="2.5" fill="#1A1A24"><title>2026-05-07: 0</title></rect><rect x="643" y="143" width="13" height="13" rx="2.5" fill="#1A1A24"><title>2026-05-08: 0</title></rect><rect x="643" y="160" width="13" height="13" rx="2.5" fill="#1A1A24"><title>2026-05-09: 0</title></rect></g><g opacity="1"><rect x="660" y="58" width="13" height="13" rx="2.5" fill="#1A1A24"><title>2026-05-10: 0</title></rect><rect x="660" y="75" width="13" height="13" rx="2.5" fill="#1A1A24"><title>2026-05-11: 0</title></rect><rect x="660" y="92" width="13" height="13" rx="2.5" fill="#1A1A24"><title>2026-05-12: 0</title></rect><rect x="660" y="109" width="13" height="13" rx="2.5" fill="#1A1A24"><title>2026-05-13: 0</title></rect><rect x="660" y="126" width="13" height="13" rx="2.5" fill="#1A1A24"><title>2026-05-14: 0</title></rect><rect x="660" y="143" width="13" height="13" rx="2.5" fill="#1A1A24"><title>2026-05-15: 0</title></rect><rect x="660" y="160" width="13" height="13" rx="2.5" fill="#1A1A24"><title>2026-05-16: 0</title></rect></g><g opacity="1"><rect x="677" y="58" width="13" height="13" rx="2.5" fill="#1A1A24"><title>2026-05-17: 0</title></rect><rect x="677" y="75" width="13" height="13" rx="2.5" fill="#1A1A24"><title>2026-05-18: 0</title></rect><rect x="677" y="92" width="13" height="13" rx="2.5" fill="#1A1A24"><title>2026-05-19: 0</title></rect><rect x="677" y="109" width="13" height="13" rx="2.5" fill="#1A1A24"><title>2026-05-20: 0</title></rect><rect x="677" y="126" width="13" height="13" rx="2.5" fill="#1A1A24"><title>2026-05-21: 0</title></rect><rect x="677" y="143" width="13" height="13" rx="2.5" fill="#1A1A24"><title>2026-05-22: 0</title></rect><rect x="677" y="160" width="13" height="13" rx="2.5" fill="#1A1A24"><title>2026-05-23: 0</title></rect></g><g opacity="1"><rect x="694" y="58" width="13" height="13" rx="2.5" fill="#1A1A24"><title>2026-05-24: 0</title></rect><rect x="694" y="75" width="13" height="13" rx="2.5" fill="#1A1A24"><title>2026-05-25: 0</title></rect><rect x="694" y="92" width="13" height="13" rx="2.5" fill="#1A1A24"><title>2026-05-26: 0</title></rect><rect x="694" y="109" width="13" height="13" rx="2.5" fill="#524F00"><title>2026-05-27: 1</title></rect><rect x="694" y="126" width="13" height="13" rx="2.5" fill="#1A1A24"><title>2026-05-28: 0</title></rect><rect x="694" y="143" width="13" height="13" rx="2.5" fill="#1A1A24"><title>2026-05-29: 0</title></rect><rect x="694" y="160" width="13" height="13" rx="2.5" fill="#1A1A24"><title>2026-05-30: 0</title></rect></g><g opacity="1"><rect x="711" y="58" width="13" height="13" rx="2.5" fill="#1A1A24"><title>2026-05-31: 0</title></rect><rect x="711" y="75" width="13" height="13" rx="2.5" fill="#1A1A24"><title>2026-06-01: 0</title></rect><rect x="711" y="92" width="13" height="13" rx="2.5" fill="#1A1A24"><title>2026-06-02: 0</title></rect><rect x="711" y="109" width="13" height="13" rx="2.5" fill="#1A1A24"><title>2026-06-03: 0</title></rect><rect x="711" y="126" width="13" height="13" rx="2.5" fill="#1A1A24"><title>2026-06-04: 0</title></rect><rect x="711" y="143" width="13" height="13" rx="2.5" fill="#1A1A24"><title>2026-06-05: 0</title></rect><rect x="711" y="160" width="13" height="13" rx="2.5" fill="#1A1A24"><title>2026-06-06: 0</title></rect></g><g opacity="1"><rect x="728" y="58" width="13" height="13" rx="2.5" fill="#1A1A24"><title>2026-06-07: 0</title></rect><rect x="728" y="75" width="13" height="13" rx="2.5" fill="#1A1A24"><title>2026-06-08: 0</title></rect><rect x="728" y="92" width="13" height="13" rx="2.5" fill="#1A1A24"><title>2026-06-09: 0</title></rect><rect x="728" y="109" width="13" height="13" rx="2.5" fill="#1A1A24"><title>2026-06-10: 0</title></rect><rect x="728" y="126" width="13" height="13" rx="2.5" fill="#1A1A24"><title>2026-06-11: 0</title></rect><rect x="728" y="143" width="13" height="13" rx="2.5" fill="#1A1A24"><title>2026-06-12: 0</title></rect><rect x="728" y="160" width="13" height="13" rx="2.5" fill="#1A1A24"><title>2026-06-13: 0</title></rect></g><g opacity="1"><rect x="745" y="58" width="13" height="13" rx="2.5" fill="#1A1A24"><title>2026-06-14: 0</title></rect><rect x="745" y="75" width="13" height="13" rx="2.5" fill="#524F00"><title>2026-06-15: 2</title></rect><rect x="745" y="92" width="13" height="13" rx="2.5" fill="#1A1A24"><title>2026-06-16: 0</title></rect><rect x="745" y="109" width="13" height="13" rx="2.5" fill="#1A1A24"><title>2026-06-17: 0</title></rect><rect x="745" y="126" width="13" height="13" rx="2.5" fill="#1A1A24"><title>2026-06-18: 0</title></rect><rect x="745" y="143" width="13" height="13" rx="2.5" fill="#1A1A24"><title>2026-06-19: 0</title></rect><rect x="745" y="160" width="13" height="13" rx="2.5" fill="#1A1A24"><title>2026-06-20: 0</title></rect></g><g opacity="1"><rect x="762" y="58" width="13" height="13" rx="2.5" fill="#1A1A24"><title>2026-06-21: 0</title></rect><rect x="762" y="75" width="13" height="13" rx="2.5" fill="#1A1A24"><title>2026-06-22: 0</title></rect><rect x="762" y="92" width="13" height="13" rx="2.5" fill="#524F00"><title>2026-06-23: 1</title></rect><rect x="762" y="109" width="13" height="13" rx="2.5" fill="#1A1A24"><title>2026-06-24: 0</title></rect><rect x="762" y="126" width="13" height="13" rx="2.5" fill="#1A1A24"><title>2026-06-25: 0</title></rect><rect x="762" y="143" width="13" height="13" rx="2.5" fill="#1A1A24"><title>2026-06-26: 0</title></rect><rect x="762" y="160" width="13" height="13" rx="2.5" fill="#1A1A24"><title>2026-06-27: 0</title></rect></g><g opacity="1"><rect x="779" y="58" width="13" height="13" rx="2.5" fill="#1A1A24"><title>2026-06-28: 0</title></rect><rect x="779" y="75" width="13" height="13" rx="2.5" fill="#1A1A24"><title>2026-06-29: 0</title></rect><rect x="779" y="92" width="13" height="13" rx="2.5" fill="#1A1A24"><title>2026-06-30: 0</title></rect><rect x="779" y="109" width="13" height="13" rx="2.5" fill="#1A1A24"><title>2026-07-01: 0</title></rect><rect x="779" y="126" width="13" height="13" rx="2.5" fill="#1A1A24"><title>2026-07-02: 0</title></rect><rect x="779" y="143" width="13" height="13" rx="2.5" fill="#1A1A24"><title>2026-07-03: 0</title></rect><rect x="779" y="160" width="13" height="13" rx="2.5" fill="#1A1A24"><title>2026-07-04: 0</title></rect></g><g opacity="1"><rect x="796" y="58" width="13" height="13" rx="2.5" fill="#1A1A24"><title>2026-07-05: 0</title></rect><rect x="796" y="75" width="13" height="13" rx="2.5" fill="#1A1A24"><title>2026-07-06: 0</title></rect><rect x="796" y="92" width="13" height="13" rx="2.5" fill="#524F00"><title>2026-07-07: 1</title></rect><rect x="796" y="109" width="13" height="13" rx="2.5" fill="#524F00"><title>2026-07-08: 1</title></rect><rect x="796" y="126" width="13" height="13" rx="2.5" fill="#1A1A24"><title>2026-07-09: 0</title></rect><rect x="796" y="143" width="13" height="13" rx="2.5" fill="#524F00"><title>2026-07-10: 2</title></rect><rect x="796" y="160" width="13" height="13" rx="2.5" fill="#1A1A24"><title>2026-07-11: 0</title></rect></g><g opacity="1"><rect x="813" y="58" width="13" height="13" rx="2.5" fill="#1A1A24"><title>2026-07-12: 0</title></rect><rect x="813" y="75" width="13" height="13" rx="2.5" fill="#1A1A24"><title>2026-07-13: 0</title></rect><rect x="813" y="92" width="13" height="13" rx="2.5" fill="#1A1A24"><title>2026-07-14: 0</title></rect><rect x="813" y="109" width="13" height="13" rx="2.5" fill="#524F00"><title>2026-07-15: 1</title></rect><rect x="813" y="126" width="13" height="13" rx="2.5" fill="#CBC500"><title>2026-07-16: 5</title></rect><rect x="813" y="143" width="13" height="13" rx="2.5" fill="#524F00"><title>2026-07-17: 2</title></rect><rect x="813" y="160" width="13" height="13" rx="2.5" fill="#1A1A24"><title>2026-07-18: 0</title></rect></g><g opacity="1"><rect x="830" y="58" width="13" height="13" rx="2.5" fill="#1A1A24"><title>2026-07-19: 0</title></rect><rect x="830" y="75" width="13" height="13" rx="2.5" fill="#8E8A00"><title>2026-07-20: 3</title></rect><rect x="830" y="92" width="13" height="13" rx="2.5" fill="#524F00"><title>2026-07-21: 2</title></rect><rect x="830" y="109" width="13" height="13" rx="2.5" fill="#1A1A24"><title>2026-07-22: 0</title></rect><rect x="830" y="126" width="13" height="13" rx="2.5" fill="#1A1A24"><title>2026-07-23: 0</title></rect><rect x="830" y="143" width="13" height="13" rx="2.5" fill="#1A1A24"><title>2026-07-24: 0</title></rect><rect x="830" y="160" width="13" height="13" rx="2.5" fill="#1A1A24"><title>2026-07-25: 0</title></rect></g><g opacity="1"><rect x="847" y="58" width="13" height="13" rx="2.5" fill="#1A1A24"><title>2026-07-26: 0</title></rect><rect x="847" y="75" width="13" height="13" rx="2.5" fill="#1A1A24"><title>2026-07-27: 0</title></rect><rect x="847" y="92" width="13" height="13" rx="2.5" fill="#1A1A24"><title>2026-07-28: 0</title></rect><rect x="847" y="109" width="13" height="13" rx="2.5" fill="#1A1A24"><title>2026-07-29: 0</title></rect><rect x="847" y="126" width="13" height="13" rx="2.5" fill="#524F00"><title>2026-07-30: 2</title></rect><rect x="847" y="143" width="13" height="13" rx="2.5" fill="#1A1A24"><title>2026-07-31: 0</title></rect><rect x="847" y="160" width="13" height="13" rx="2.5" fill="#1A1A24"><title>2026-08-01: 0</title></rect></g><g opacity="1"><rect x="864" y="58" width="13" height="13" rx="2.5" fill="#1A1A24"><title>2026-08-02: 0</title></rect><rect x="864" y="75" width="13" height="13" rx="2.5" fill="#8E8A00"><title>2026-08-03: 3</title></rect><rect x="864" y="92" width="13" height="13" rx="2.5" fill="#524F00"><title>2026-08-04: 1</title></rect><rect x="864" y="109" width="13" height="13" rx="2.5" fill="#524F00"><title>2026-08-05: 1</title></rect><rect x="864" y="126" width="13" height="13" rx="2.5" fill="#1A1A24"><title>2026-08-06: 0</title></rect><rect x="864" y="143" width="13" height="13" rx="2.5" fill="#1A1A24"><title>2026-08-07: 0</title></rect><rect x="864" y="160" width="13" height="13" rx="2.5" fill="#1A1A24"><title>2026-08-08: 0</title></rect></g><g opacity="1"><rect x="881" y="58" width="13" height="13" rx="2.5" fill="#1A1A24"><title>2026-08-09: 0</title></rect><rect x="881" y="75" width="13" height="13" rx="2.5" fill="#1A1A24"><title>2026-08-10: 0</title></rect><rect x="881" y="92" width="13" height="13" rx="2.5" fill="#1A1A24"><title>2026-08-11: 0</title></rect><rect x="881" y="109" width="13" height="13" rx="2.5" fill="#1A1A24"><title>2026-08-12: 0</title></rect><rect x="881" y="126" width="13" height="13" rx="2.5" fill="#1A1A24"><title>2026-08-13: 0</title></rect><rect x="881" y="143" width="13" height="13" rx="2.5" fill="#F5E900"><title>2026-08-14: 22</title></rect><rect x="881" y="160" width="13" height="13" rx="2.5" fill="#1A1A24"><title>2026-08-15: 0</title></rect></g><g opacity="1"><rect x="898" y="58" width="13" height="13" rx="2.5" fill="#1A1A24"><title>2026-08-16: 0</title></rect><rect x="898" y="75" width="13" height="13" rx="2.5" fill="#F5E900"><title>2026-08-17: 11</title></rect><rect x="898" y="92" width="13" height="13" rx="2.5" fill="#CBC500"><title>2026-08-18: 5</title></rect><rect x="898" y="109" width="13" height="13" rx="2.5" fill="#524F00"><title>2026-08-19: 2</title></rect><rect x="898" y="126" width="13" height="13" rx="2.5" fill="#F5E900"><title>2026-08-20: 13</title></rect><rect x="898" y="143" width="13" height="13" rx="2.5" fill="#1A1A24"><title>2026-08-21: 0</title></rect><rect x="898" y="160" width="13" height="13" rx="2.5" fill="#1A1A24"><title>2026-08-22: 0</title></rect></g><g opacity="1"><rect x="915" y="58" width="13" height="13" rx="2.5" fill="#1A1A24"><title>2026-08-23: 0</title></rect><rect x="915" y="75" width="13" height="13" rx="2.5" fill="#F5E900"><title>2026-08-24: 7</title></rect><rect x="915" y="92" width="13" height="13" rx="2.5" fill="#F5E900"><title>2026-08-25: 8</title></rect><rect x="915" y="109" width="13" height="13" rx="2.5" fill="#1A1A24"><title>2026-08-26: 0</title></rect><rect x="915" y="126" width="13" height="13" rx="2.5" fill="#1A1A24"><title>2026-08-27: 0</title></rect><rect x="915" y="143" width="13" height="13" rx="2.5" fill="#1A1A24"><title>2026-08-28: 0</title></rect><rect x="915" y="160" width="13" height="13" rx="2.5" fill="#1A1A24"><title>2026-08-29: 0</title></rect></g><g opacity="1"><rect x="932" y="58" width="13" height="13" rx="2.5" fill="#1A1A24"><title>2026-08-30: 0</title></rect><rect x="932" y="75" width="13" height="13" rx="2.5" fill="#1A1A24"><title>2026-08-31: 0</title></rect><rect x="932" y="92" width="13" height="13" rx="2.5" fill="#1A1A24"><title>2026-09-01: 0</title></rect><rect x="932" y="109" width="13" height="13" rx="2.5" fill="#524F00"><title>2026-09-02: 1</title></rect><rect x="932" y="126" width="13" height="13" rx="2.5" fill="#8E8A00"><title>2026-09-03: 4</title></rect><rect x="932" y="143" width="13" height="13" rx="2.5" fill="#1A1A24"><title>2026-09-04: 0</title></rect></g>
<text x="816" y="199" font-size="9" fill="#4A4A5C" font-weight="500" text-anchor="end" letter-spacing="1.5" textLength="26.8" lengthAdjust="spacing" >LESS</text><rect x="824" y="189" width="13" height="13" rx="2.5" fill="#1A1A24"/><rect x="841" y="189" width="13" height="13" rx="2.5" fill="#524F00"/><rect x="858" y="189" width="13" height="13" rx="2.5" fill="#8E8A00"/><rect x="875" y="189" width="13" height="13" rx="2.5" fill="#CBC500"/><rect x="892" y="189" width="13" height="13" rx="2.5" fill="#F5E900"/><text x="947" y="199" font-size="9" fill="#4A4A5C" font-weight="500" text-anchor="end" letter-spacing="1.5" textLength="26.8" lengthAdjust="spacing" >MORE</text>
<g stroke="#00F0FF" stroke-width="1.5" fill="none" opacity="0.9">
<path d="M6 16V6h10"/><path d="M949 6h10v10"/>
<path d="M6 195v10h10"/><path d="M949 205h10v-10"/></g>
<rect width="965" height="211" fill="url(#scan)" pointer-events="none"/>
</svg>